<svg width="1443" height="334" viewBox="0 0 1443 334" fill="none" xmlns="http://www.w3.org/2000/svg">
<path d="M108.173 68.9264C118.549 67.0542 128.98 66.6721 139.465 67.7801C150.038 68.5864 159.975 71.0077 169.274 75.0438C178.963 78.8667 187.714 84.216 195.526 91.0918C203.426 97.666 210.192 105.873 215.825 115.714C221.369 125.856 224.882 136.221 226.364 146.81C227.846 157.399 227.812 168.691 226.262 180.684C225.169 188.881 215.814 211.849 216.583 219.281C217.353 226.714 221.642 236.902 222.43 240.934C223.803 248.543 227.755 256.307 228.525 263.739C230.007 270.655 230.402 268.895 230.09 276.665C229.565 284.045 229.773 286.045 225.113 291.886C220.843 297.513 214.565 299.932 206.28 299.141C201.49 298.72 197.205 297.136 193.424 294.39C190.033 291.43 187.12 287.956 184.686 283.967C182.341 279.676 180.341 275.323 178.687 270.907C177.423 266.278 176.222 261.995 175.083 258.058C165.492 265.074 155.873 269.952 146.225 272.693C136.666 275.132 125.933 275.426 114.029 273.574C104.022 271.951 94.733 269.556 86.1619 266.389C77.5907 263.221 68.7257 258.821 59.567 253.188C47.5685 246.068 38.5397 237.197 32.4808 226.577C26.8119 215.743 23.3067 204.233 21.965 192.047C21.0134 179.648 22.2437 167.07 25.6558 154.312C29.0678 141.554 34.2456 129.477 41.1891 118.082C50.1869 103.031 60.4123 91.6148 71.8649 83.8343C83.3176 76.0539 95.4204 71.0846 108.173 68.9264ZM103.967 125.183C98.5061 128.168 93.729 132.173 89.6357 137.197C85.5425 142.221 82.2658 147.812 79.8056 153.97C77.6471 160.216 76.3936 166.727 76.045 173.504C75.6964 180.281 76.4738 186.569 78.3773 192.368C80.1559 197.476 84.223 202.599 90.5785 207.737C97.0224 212.574 104.077 216.444 111.744 219.346C120.616 222.602 129.167 222.488 137.395 219.003C145.924 215.607 153.042 210.323 158.748 203.151C164.843 195.766 169.111 187.353 171.55 177.914C174.078 168.172 174.078 158.673 171.551 149.415C169.611 142.623 166.022 136.985 160.785 132.501C155.849 128.106 150.063 124.936 143.427 122.991C136.879 120.744 129.933 119.855 122.589 120.323C115.636 120.577 109.428 122.197 103.967 125.183Z" fill="#3A3A3A"/>
<path d="M443.252 117.17C440.26 121.658 437.161 126.038 433.956 130.312C430.75 134.587 427.652 138.861 424.66 143.135C411.197 162.368 397.733 181.494 384.27 200.514C371.021 219.533 357.771 238.766 344.522 258.213C347.727 258.213 350.185 258.213 351.894 258.213C353.604 258.213 354.993 258.213 356.062 258.213C357.344 258.213 358.733 258.213 360.229 258.213C361.725 258.213 363.969 258.32 366.96 258.534C369.952 258.534 374.013 258.534 379.141 258.534C384.484 258.534 391.536 258.534 400.298 258.534C405.854 258.534 411.304 258.534 416.646 258.534C422.202 258.534 427.759 258.747 433.315 259.175C434.383 259.388 435.559 259.602 436.841 259.816C438.123 259.816 439.298 260.03 440.367 260.457L442.29 261.419C442.29 261.419 442.931 261.632 444.214 262.06C446.778 263.556 448.915 265.265 450.625 267.189C453.616 271.463 454.471 276.271 453.189 281.613C452.975 283.109 452.441 284.498 451.586 285.781C450.945 286.849 450.197 287.811 449.342 288.666C447.633 290.375 445.603 291.551 443.252 292.192C440.901 293.474 438.444 294.222 435.879 294.436C434.811 294.649 433.742 294.863 432.674 295.077C431.819 295.077 430.857 295.077 429.789 295.077H313.428C312.146 295.077 310.864 295.077 309.581 295.077C308.299 295.077 307.017 294.97 305.735 294.756C305.094 294.542 304.453 294.436 303.811 294.436C303.384 294.436 302.957 294.329 302.529 294.115C301.674 293.901 300.82 293.794 299.965 293.794C299.324 293.581 298.469 293.367 297.4 293.153C295.05 291.871 293.233 290.696 291.951 289.627C289.387 287.704 287.997 285.674 287.784 283.537V283.216C287.356 282.148 287.036 281.186 286.822 280.331C286.822 279.476 286.929 278.408 287.143 277.126C287.143 276.912 287.036 276.805 286.822 276.805C286.822 276.591 286.822 276.271 286.822 275.844C286.822 274.561 287.036 273.386 287.463 272.317C287.891 271.035 288.318 269.753 288.745 268.471C289.173 267.83 289.493 267.189 289.707 266.547C290.134 265.693 290.669 264.945 291.31 264.304C291.737 263.235 292.272 262.167 292.913 261.098C293.767 260.03 294.409 258.961 294.836 257.893C295.263 257.038 295.691 256.183 296.118 255.328C296.759 254.26 297.294 253.405 297.721 252.764C298.576 251.909 299.217 251.161 299.644 250.52C300.285 249.665 300.82 248.81 301.247 247.955L317.916 224.555L347.727 181.28C352.429 175.083 357.023 168.672 361.511 162.047C366.212 155.209 371.021 148.157 375.936 140.891C379.569 135.334 382.881 130.526 385.873 126.466C388.865 122.192 392.07 117.597 395.49 112.682C388.01 112.682 380.958 112.682 374.333 112.682C367.922 112.682 361.511 112.682 355.1 112.682C348.689 112.468 341.957 112.362 334.905 112.362C328.067 112.148 320.48 111.934 312.146 111.72C309.154 111.507 305.628 111.079 301.568 110.438C297.721 109.583 294.515 107.981 291.951 105.63C289.6 103.493 288.211 101.249 287.784 98.8983C287.143 96.7613 286.822 94.1968 286.822 91.205C286.822 87.7858 287.784 84.794 289.707 82.2295C291.844 79.4514 294.515 77.4212 297.721 76.139C302.209 74.4294 306.59 73.5746 310.864 73.5746C313.214 73.3609 315.565 73.2541 317.916 73.2541C320.266 73.2541 322.51 73.0404 324.647 72.6129H326.25C332.447 72.3992 341.637 72.3992 353.818 72.6129C366.212 72.6129 381.706 72.6129 400.298 72.6129C402.649 72.6129 405.106 72.6129 407.671 72.6129C410.235 72.3992 412.693 72.3992 415.043 72.6129C419.958 73.0404 425.087 73.1472 430.43 72.9335C435.986 72.7198 441.008 73.8952 445.496 76.4596C446.778 77.1007 447.953 77.8486 449.022 78.7034C450.09 79.5583 451.266 80.3062 452.548 80.9473C455.112 83.298 456.288 86.0762 456.074 89.2817C456.074 92.4872 455.326 95.7996 453.83 99.2188C452.548 102.638 450.838 105.95 448.701 109.156C446.564 112.362 444.748 115.033 443.252 117.17ZM600.133 220.708C599.705 227.761 599.278 234.92 598.85 242.185C598.423 249.238 597.248 256.076 595.324 262.701C593.615 269.326 590.837 275.309 586.99 280.652C583.357 285.994 578.121 290.268 571.283 293.474C565.299 296.466 558.888 298.496 552.05 299.564C545.211 300.847 538.373 301.381 531.534 301.167C524.696 300.953 518.071 299.885 511.66 297.962C505.249 296.252 499.479 293.794 494.35 290.589C489.221 287.383 485.054 283.216 481.849 278.087C478.643 272.959 476.079 267.402 474.155 261.419C472.446 255.435 471.27 249.238 470.629 242.827C469.988 236.415 469.561 230.432 469.347 224.876C468.492 210.13 468.492 195.598 469.347 181.28C469.347 178.502 469.347 175.404 469.347 171.984C469.347 168.351 469.561 164.825 469.988 161.406C470.629 157.987 471.591 154.888 472.873 152.11C474.155 149.118 476.292 146.874 479.284 145.378C485.695 141.959 491.572 141.746 496.915 144.737C502.471 147.729 505.783 153.927 506.852 163.329C507.493 168.245 507.706 173.694 507.493 179.678C507.493 185.661 507.706 191.111 508.134 196.026C508.348 203.292 508.561 211.199 508.775 219.747C508.989 228.081 510.164 235.561 512.301 242.185C514.652 248.81 518.392 253.832 523.52 257.251C528.863 260.457 536.77 260.564 547.241 257.572C552.156 256.076 555.362 252.336 556.858 246.353C558.568 240.369 559.422 231.5 559.422 219.747C559.422 214.618 559.315 208.955 559.102 202.757C558.888 196.56 558.781 190.47 558.781 184.486C558.781 178.289 558.888 172.625 559.102 167.497C559.529 162.154 560.17 158.094 561.025 155.316C562.094 151.469 564.337 148.584 567.757 146.661C571.176 144.737 574.809 143.776 578.655 143.776C582.502 143.562 586.135 144.31 589.554 146.02C592.974 147.729 595.324 150.507 596.606 154.354C597.889 157.773 598.743 162.154 599.171 167.497C599.812 172.625 600.239 178.289 600.453 184.486C600.667 190.47 600.667 196.667 600.453 203.078C600.453 209.275 600.346 215.152 600.133 220.708ZM675.991 271.356C675.777 272.424 675.563 273.493 675.35 274.561C675.35 275.416 675.35 276.378 675.35 277.446L673.426 284.178C672.999 285.033 672.678 285.567 672.465 285.781L671.503 287.704C670.435 290.055 668.511 291.978 665.733 293.474C660.604 296.038 655.155 296.679 649.385 295.397C645.752 294.97 642.867 293.901 640.73 292.192C638.593 290.696 637.097 288.879 636.242 286.742C635.388 284.605 634.746 282.468 634.319 280.331C633.678 278.194 633.357 276.271 633.357 274.561V95.0516C633.357 93.5557 633.357 92.2735 633.357 91.205C633.571 89.9228 633.785 88.7474 633.998 87.6789C634.212 86.183 634.426 84.9008 634.64 83.8323C635.067 82.7638 635.494 81.5884 635.922 80.3062C636.563 78.1692 637.738 76.4596 639.448 75.1774C642.012 73.2541 644.47 72.1855 646.821 71.9718C648.316 71.5444 649.706 71.3307 650.988 71.3307C652.27 71.117 653.766 71.0102 655.475 71.0102C658.467 71.0102 661.887 71.865 665.733 73.5746C668.725 75.2842 670.862 77.6349 672.144 80.6268C674.281 84.9008 675.35 88.8543 675.35 92.4872C675.563 94.6243 675.67 97.8298 675.67 102.104C675.884 106.378 675.991 109.583 675.991 111.72V113.003C676.418 119.841 676.632 126.466 676.632 132.877C676.632 139.074 676.525 145.913 676.311 153.392C676.311 160.658 676.205 167.71 675.991 174.549C675.991 181.174 675.991 187.798 675.991 194.423V261.739C675.991 262.594 675.991 263.449 675.991 264.304C676.205 264.945 676.311 265.693 676.311 266.547C676.311 268.684 676.205 270.287 675.991 271.356ZM739.731 162.047C746.142 158.842 752.874 156.598 759.926 155.316C766.978 153.82 773.923 153.499 780.762 154.354C787.814 154.995 794.545 156.812 800.956 159.803C807.368 162.581 813.351 166.642 818.907 171.984C824.464 177.541 828.738 183.631 831.73 190.256C834.721 196.881 836.858 204.253 838.141 212.374C838.995 217.93 840.384 223.059 842.308 227.761C844.231 232.462 846.261 237.163 848.398 241.865C850.749 246.566 852.886 251.268 854.809 255.969C856.946 260.671 858.656 265.586 859.938 270.715C861.007 275.63 860.579 280.438 858.656 285.14C856.946 289.627 853.313 292.405 847.757 293.474C844.552 294.115 841.453 293.901 838.461 292.833C835.683 291.551 833.119 289.841 830.768 287.704C828.417 285.353 826.28 282.896 824.357 280.331C822.647 277.553 821.044 274.989 819.549 272.638C814.633 279.049 809.291 284.071 803.521 287.704C797.751 291.123 790.806 293.367 782.685 294.436C775.846 295.29 769.329 295.504 763.131 295.077C756.934 294.649 750.309 293.474 743.257 291.551C734.068 289.2 726.481 285.14 720.498 279.37C714.728 273.386 710.24 266.547 707.034 258.854C704.043 250.947 702.44 242.506 702.226 233.531C702.012 224.555 703.081 215.686 705.432 206.925C708.423 195.385 712.911 185.982 718.895 178.716C724.879 171.45 731.824 165.894 739.731 162.047ZM747.745 199.552C744.753 202.544 742.402 206.07 740.692 210.13C738.983 214.19 737.914 218.465 737.487 222.952C737.273 227.44 737.701 231.928 738.769 236.415C739.838 240.903 741.547 244.857 743.898 248.276C746.035 251.268 749.668 253.832 754.797 255.969C759.926 257.893 765.268 259.068 770.824 259.495C777.236 259.923 782.792 258.213 787.493 254.366C792.408 250.52 796.041 245.712 798.392 239.942C800.956 233.958 802.132 227.654 801.918 221.029C801.704 214.19 799.888 207.993 796.469 202.437C793.904 198.377 790.485 195.385 786.211 193.461C782.151 191.538 777.77 190.576 773.068 190.576C768.367 190.363 763.665 191.111 758.964 192.82C754.476 194.316 750.736 196.56 747.745 199.552ZM1010.16 156.598C1011.01 159.162 1011.23 162.047 1010.8 165.253C1010.37 168.458 1009.62 171.771 1008.55 175.19C1007.49 178.395 1006.2 181.601 1004.71 184.806C1003.43 187.798 1002.25 190.47 1001.18 192.82C995.626 204.146 990.39 215.259 985.475 226.158C980.56 237.057 974.79 248.917 968.165 261.739C966.883 264.304 965.387 267.402 963.677 271.035C962.181 274.454 960.472 277.874 958.548 281.293C956.625 284.498 954.488 287.49 952.137 290.268C950 293.047 947.649 295.077 945.085 296.359C942.948 297.641 940.811 298.175 938.674 297.962C936.964 298.389 935.041 297.855 932.904 296.359C930.34 295.077 927.882 293.047 925.531 290.268C923.394 287.49 921.364 284.498 919.441 281.293C917.517 277.874 915.701 274.454 913.991 271.035C912.495 267.402 911.106 264.304 909.824 261.739C907.26 256.824 904.802 252.229 902.451 247.955C900.314 243.681 897.964 239.087 895.399 234.172C893.049 229.043 890.377 223.273 887.385 216.862C884.394 210.237 880.868 202.223 876.807 192.82C875.739 190.256 874.563 187.585 873.281 184.806C871.999 182.028 870.824 179.037 869.755 175.831C868.9 172.625 868.259 169.42 867.832 166.214C867.618 162.795 867.832 159.376 868.473 155.957C869.114 152.751 870.717 150.187 873.281 148.263C875.846 146.34 878.731 145.058 881.936 144.417C885.142 143.776 888.347 143.883 891.553 144.737C894.758 145.378 897.323 146.768 899.246 148.905C901.169 150.828 902.986 153.392 904.695 156.598C906.405 159.803 908.008 163.223 909.504 166.856C911.213 170.275 912.709 173.801 913.991 177.434C915.487 180.853 916.876 183.845 918.159 186.409C921.15 192.607 924.463 199.338 928.096 206.604C931.942 213.87 935.362 220.602 938.353 226.799C940.49 221.884 942.414 217.823 944.123 214.618C945.833 211.199 947.436 207.886 948.932 204.681C950.641 201.475 952.351 197.949 954.06 194.103C955.984 190.256 958.335 185.341 961.113 179.357C963.677 173.801 966.242 168.351 968.806 163.009C971.584 157.666 974.896 152.965 978.743 148.905C980.666 146.768 983.124 145.378 986.116 144.737C989.108 143.883 992.206 143.776 995.412 144.417C998.617 145.058 1001.5 146.447 1004.07 148.584C1006.84 150.507 1008.88 153.179 1010.16 156.598ZM1077.26 175.51C1077.26 181.494 1077.26 188.226 1077.26 195.705C1077.47 203.185 1077.58 210.985 1077.58 219.106C1077.58 227.013 1077.58 234.92 1077.58 242.827C1077.58 250.52 1077.47 257.679 1077.26 264.304C1077.04 267.509 1076.72 271.035 1076.29 274.882C1075.87 278.515 1075.01 281.934 1073.73 285.14C1072.45 288.345 1070.42 291.016 1067.64 293.153C1065.07 295.077 1061.55 295.931 1057.06 295.718C1050.44 295.29 1045.63 292.405 1042.64 287.063C1039.86 281.72 1038.25 274.241 1037.83 264.624C1037.83 259.709 1037.72 254.046 1037.51 247.635C1037.51 241.224 1037.4 234.706 1037.19 228.081C1037.19 221.456 1037.19 215.045 1037.19 208.848C1037.19 202.437 1037.19 196.667 1037.19 191.538C1037.19 188.546 1037.08 184.913 1036.87 180.639C1036.87 176.365 1036.97 171.984 1037.19 167.497C1037.4 163.009 1037.93 158.735 1038.79 154.674C1039.64 150.4 1041.03 146.874 1042.96 144.096C1044.45 142.387 1046.59 141.104 1049.37 140.25C1052.15 139.181 1055.03 138.647 1058.02 138.647C1061.23 138.647 1064.22 139.181 1067 140.25C1069.99 141.318 1072.13 142.814 1073.41 144.737C1074.26 146.02 1074.9 147.836 1075.33 150.187C1075.76 152.537 1076.08 155.209 1076.29 158.201C1076.72 160.979 1076.93 163.971 1076.93 167.176C1077.15 170.168 1077.26 172.946 1077.26 175.51ZM1065.07 110.759C1058.45 112.468 1052.89 111.827 1048.41 108.835C1044.13 105.63 1041.46 100.928 1040.39 94.7311C1039.54 90.2434 1039.86 86.2899 1041.35 82.8706C1042.85 79.4514 1045.09 76.887 1048.09 75.1774C1051.08 73.2541 1054.5 72.3992 1058.34 72.6129C1062.19 72.8266 1066.04 74.3226 1069.88 77.1007C1073.52 79.6651 1076.08 82.6569 1077.58 86.0762C1079.29 89.4954 1079.82 92.8078 1079.18 96.0133C1078.75 99.2188 1077.36 102.211 1075.01 104.989C1072.66 107.553 1069.35 109.477 1065.07 110.759ZM1106.06 94.4105C1106.49 86.7173 1108.84 80.5199 1113.11 75.8185C1117.6 71.117 1123.91 69.8348 1132.03 71.9718C1135.87 73.0404 1138.65 74.6431 1140.36 76.7801C1142.29 78.9172 1143.57 81.4816 1144.21 84.4734C1145.06 87.2515 1145.49 90.3502 1145.49 93.7694C1145.49 96.975 1145.49 100.181 1145.49 103.386V147.622C1145.28 149.332 1145.17 151.042 1145.17 152.751C1145.38 154.247 1145.49 155.636 1145.49 156.918V161.086H1153.5C1155.86 161.086 1158.1 161.086 1160.24 161.086C1162.59 161.086 1164.62 160.979 1166.33 160.765C1178.08 160.765 1188.12 162.475 1196.46 165.894C1205.01 169.313 1211.85 174.121 1216.97 180.319C1222.32 186.302 1226.16 193.568 1228.51 202.116C1231.08 210.451 1232.25 219.64 1232.04 229.684C1231.83 241.651 1229.9 251.909 1226.27 260.457C1222.64 269.005 1217.51 276.057 1210.88 281.613C1204.26 287.17 1196.24 291.337 1186.84 294.115C1177.65 296.679 1167.29 297.962 1155.75 297.962C1142.5 297.962 1132.45 297.855 1125.62 297.641C1118.78 297.427 1113.86 295.504 1110.87 291.871C1108.09 288.238 1106.6 281.934 1106.38 272.959C1106.17 263.983 1106.06 250.84 1106.06 233.531C1106.06 216.862 1106.06 200.407 1106.06 184.165C1106.28 167.924 1106.28 151.576 1106.06 135.121C1106.06 132.984 1105.96 130.74 1105.74 128.389C1105.74 126.038 1105.74 123.367 1105.74 120.375C1105.74 117.384 1105.74 113.857 1105.74 109.797C1105.74 105.523 1105.85 100.394 1106.06 94.4105ZM1166.01 262.06C1177.76 261.419 1185.88 258.213 1190.37 252.443C1192.72 249.238 1194.54 245.391 1195.82 240.903C1197.1 236.415 1197.63 231.928 1197.42 227.44C1197.21 222.952 1196.24 218.678 1194.54 214.618C1193.04 210.344 1190.58 206.818 1187.16 204.04C1184.17 201.475 1181.18 199.659 1178.19 198.59C1175.2 197.308 1172.1 196.56 1168.89 196.346C1165.69 195.919 1162.27 195.812 1158.63 196.026C1155 196.026 1150.83 196.133 1146.13 196.346V234.813L1145.49 261.419C1147.63 261.632 1149.87 261.846 1152.22 262.06C1156.28 262.487 1160.88 262.487 1166.01 262.06ZM1368.78 253.084C1371.35 252.443 1373.91 252.016 1376.48 251.802C1379.25 251.588 1381.71 251.909 1383.85 252.764C1386.2 253.619 1388.12 255.114 1389.62 257.251C1391.12 259.175 1391.86 261.953 1391.86 265.586C1391.86 268.15 1391.22 270.608 1389.94 272.959C1388.66 275.309 1387.05 277.446 1385.13 279.37C1383.21 281.293 1381.07 283.003 1378.72 284.498C1376.37 285.781 1374.13 286.849 1371.99 287.704C1365.79 290.482 1358.63 292.619 1350.51 294.115C1342.6 295.611 1334.38 296.145 1325.83 295.718C1314.29 295.29 1303.18 293.047 1292.49 288.986C1282.02 284.712 1273.79 277.767 1267.81 268.15C1262.25 258.747 1258.94 248.276 1257.87 236.736C1256.8 225.196 1257.34 214.297 1259.47 204.04C1261.83 191.645 1265.78 181.601 1271.34 173.908C1277.11 166.001 1283.94 159.696 1291.85 154.995C1301.47 149.439 1312.26 146.554 1324.23 146.34C1336.19 146.126 1347.63 148.477 1358.53 153.392C1365.79 156.598 1372.31 160.979 1378.08 166.535C1383.85 171.878 1388.23 178.395 1391.22 186.089C1392.08 188.012 1392.72 190.363 1393.15 193.141C1393.79 195.919 1394.21 198.911 1394.43 202.116C1394.64 205.108 1394.64 208.1 1394.43 211.092C1394.21 214.084 1393.68 216.755 1392.82 219.106C1391.54 222.952 1389.94 225.944 1388.02 228.081C1386.09 230.218 1383.64 231.821 1380.64 232.889C1377.65 233.958 1374.02 234.706 1369.75 235.133C1365.68 235.347 1360.77 235.561 1355 235.774C1349.87 235.988 1345.06 236.095 1340.57 236.095C1336.09 236.095 1331.49 236.095 1326.79 236.095C1322.09 235.881 1317.17 235.774 1312.05 235.774C1307.13 235.561 1301.57 235.347 1295.38 235.133C1294.74 239.407 1295.27 243.147 1296.98 246.353C1298.9 249.344 1301.47 251.909 1304.67 254.046C1307.88 255.969 1311.51 257.465 1315.57 258.534C1319.63 259.602 1323.59 260.243 1327.43 260.457C1334.7 260.884 1341.64 260.35 1348.27 258.854C1354.89 257.145 1361.73 255.221 1368.78 253.084ZM1355 190.897C1350.94 186.196 1346.67 182.776 1342.18 180.639C1338.76 179.143 1335.13 178.502 1331.28 178.716C1327.65 178.716 1324.12 179.25 1320.7 180.319C1314.5 181.815 1309.27 185.02 1304.99 189.935C1304.57 190.363 1303.82 191.431 1302.75 193.141C1301.68 194.637 1300.61 196.24 1299.54 197.949C1298.69 199.659 1298.05 201.262 1297.62 202.757C1297.19 204.253 1297.41 205.001 1298.26 205.001H1361.09C1360.88 202.009 1360.34 199.552 1359.49 197.629C1358.63 195.492 1357.14 193.248 1355 190.897Z" fill="#3A3A3A"/>
</svg>
