<svg width="619" height="97" viewBox="0 0 619 97" fill="none" xmlns="http://www.w3.org/2000/svg">
<path d="M597.666 5.79252V4.70979H605.226V5.79252H602.056V14.7891H600.836V5.79252H597.666ZM607.11 4.70979H608.566L611.992 13.0764H612.11L615.535 4.70979H616.992V14.7891H615.85V7.13118H615.752L612.602 14.7891H611.5L608.35 7.13118H608.251V14.7891H607.11V4.70979Z" fill="white"/>
<path d="M41.5302 46.96L66.4602 8.25H83.3702V8.88L48.5502 59.98V95.93H34.5202V59.98L0.700195 8.88V8.25H17.3602L41.5302 46.96Z" fill="white"/>
<path d="M251.631 8.42188L222.781 49.5219L193.801 8.42188H177.601L203.031 44.9119L203.951 46.2319L221.081 70.2119H223.981L253.891 28.8419V96.0319H267.851V8.42188H251.631Z" fill="white"/>
<path d="M330.08 8.25781C346.74 8.25781 359.89 15.8978 359.89 33.3078C359.89 40.6978 356.01 47.3378 347.74 50.7178C358.26 53.8478 362.65 64.2478 362.65 70.8878C362.65 90.0478 347.37 95.9378 330.08 95.9378C316.43 95.9378 303.52 95.9378 289.87 95.9378V8.25781H330.08ZM303.78 44.5778H330.21C340.73 44.5778 345.99 40.4478 345.99 33.5578C345.99 27.4178 340.6 20.9078 330.08 20.9078H303.77V44.5778H303.78ZM303.78 82.9078H330.09C337.86 82.9078 348.63 80.3978 348.63 70.7578C348.63 61.3678 338.24 57.1078 330.22 57.1078C321.33 57.1078 312.68 57.1078 303.79 57.1078V82.9078H303.78Z" fill="white"/>
<path d="M444.3 95.9378H379.54C379.54 66.7478 379.54 37.4478 379.54 8.25781H443.92V21.9078H393.57V45.5778H441.92V58.6078H393.57V82.1578H444.3V95.9378Z" fill="white"/>
<path d="M471.34 50.6022L511.54 8.74219V8.24219H494.13L462.81 41.4422L458.43 46.0722L453.65 51.1022L458.43 56.0122L467 64.7622L497.51 95.9322H515.05V95.0522L471.34 50.6022Z" fill="white"/>
<path d="M608.62 95.9322H593.71L588.34 84.0822L579.99 64.7622H580.21L571.99 46.2622L561.67 23.0322L547.35 55.2322L546.76 56.5722L543.13 64.7622H543.23L533.38 87.4922L532.88 88.6422L529.6 95.9322H514.69L554.01 8.24219H569.3L608.62 95.9322Z" fill="white"/>
<path d="M453.65 51.0975L458.43 46.0675L462.81 41.4375" fill="white"/>
<path d="M453.65 51.1016L458.43 56.0116L467 64.7616" fill="white"/>
<path d="M144.79 45.6275C143.21 46.8175 141.36 47.3375 139.52 47.7375C135.7 48.6575 132.93 51.5575 132.41 55.2475C132.28 56.6975 132.67 58.0175 133.6 59.3275C135.18 56.4275 137.42 54.3175 139.26 53.9275C136.1 57.4875 134.12 61.3075 134.65 66.1775H136.1C135.71 64.8575 135.57 63.4075 135.97 62.2275C136.1 61.6975 136.23 61.4375 136.89 61.6975C138.47 62.0875 140.05 61.9575 141.5 61.1675C143.61 59.9775 144.66 58.1375 145.45 56.0275C146.5 52.9975 146.77 49.7075 146.77 46.5375V43.8975C145.97 44.5775 145.44 45.2375 144.79 45.6275ZM144.79 45.6275C143.21 46.8175 141.36 47.3375 139.52 47.7375C135.7 48.6575 132.93 51.5575 132.41 55.2475C132.28 56.6975 132.67 58.0175 133.6 59.3275C135.18 56.4275 137.42 54.3175 139.26 53.9275C136.1 57.4875 134.12 61.3075 134.65 66.1775H136.1C135.71 64.8575 135.57 63.4075 135.97 62.2275C136.1 61.6975 136.23 61.4375 136.89 61.6975C138.47 62.0875 140.05 61.9575 141.5 61.1675C143.61 59.9775 144.66 58.1375 145.45 56.0275C146.5 52.9975 146.77 49.7075 146.77 46.5375V43.8975C145.97 44.5775 145.44 45.2375 144.79 45.6275ZM132.01 5.1875C105.4 5.1875 86.6904 24.6875 86.6904 51.4275C86.6904 74.6175 101.05 97.0075 131.75 97.0075C162.31 97.0075 176.81 75.1375 176.81 51.2875C176.8 27.5775 162.18 5.3175 132.01 5.1875ZM147.16 79.7575C145.71 83.1875 142.81 85.2875 138.73 85.2875C135.3 85.1575 132.67 83.1775 131.09 79.8875C130.43 78.4375 131.22 76.9875 132.8 76.7275H133.59C137.28 76.7275 140.84 76.5975 144.53 76.7275C145.06 76.7275 145.72 76.7275 146.11 76.9875C147.16 77.3775 147.68 78.6975 147.16 79.7575ZM147.82 75.5375H130.56C129.37 75.5375 128.58 74.8775 128.58 73.8275C128.58 72.7775 129.37 72.1175 130.56 72.1175H146.76C147.16 72.1175 147.55 72.1175 147.95 72.2475C149 72.2475 149.66 73.0375 149.66 73.9575C149.53 74.8775 148.87 75.5375 147.82 75.5375ZM150.45 69.8675C150.19 70.5275 149.66 70.9175 149 70.9175H129.37C128.58 70.9175 127.92 70.3875 127.66 69.5975C127.53 68.9375 127.92 68.1475 128.58 67.7575H128.71C129.11 67.6275 129.37 67.6275 129.76 67.6275H138.06C138.06 67.6275 147.81 67.6275 148.2 67.6275C148.33 67.6275 148.33 67.6275 148.46 67.6275C148.86 67.6275 149.25 67.6275 149.65 67.7575C149.78 67.7575 149.91 67.7575 149.91 67.8875C150.58 68.4275 150.84 69.2175 150.45 69.8675ZM158.35 42.5975C157.56 44.4375 156.77 46.2875 155.85 48.1275C154.8 50.2375 153.48 52.2075 151.63 53.7875C150.18 54.9775 149.52 56.5575 149.65 58.3975C149.78 59.8475 150.04 61.2975 150.31 62.8775C150.44 63.9275 150.18 64.8575 149.65 65.7775C149.52 66.0375 149.39 66.1675 149.25 66.1675H148.46C148.33 66.1675 148.33 66.1675 148.2 66.1675C147.81 66.1675 138.06 66.1675 138.06 66.1675H136.08C135.69 64.8475 135.55 63.3975 135.95 62.2175C136.08 61.6875 136.21 61.4275 136.87 61.6875C138.45 62.0775 140.03 61.9475 141.48 61.1575C143.59 59.9675 144.64 58.1275 145.43 56.0175C146.48 52.9875 146.75 49.6975 146.75 46.5275V43.8875C145.96 44.5475 145.43 45.2075 144.77 45.5975C143.19 46.7875 141.34 47.3075 139.5 47.7075C135.68 48.6275 132.91 51.5275 132.39 55.2175C132.26 56.6675 132.65 57.9875 133.58 59.2975C135.16 56.3975 137.4 54.2875 139.24 53.8975C136.08 57.4575 134.1 61.2775 134.63 66.1475H129.76C129.36 66.1475 129.1 66.1475 128.71 66.2775H128.58C128.32 65.7475 128.19 64.5675 127.92 63.3775C127.79 62.5875 127.53 61.6675 127.26 61.0075C127 59.6875 126.47 58.3675 125.68 57.1875C125.28 56.6575 124.76 56.2675 124.23 55.8675C123.83 55.6075 123.7 55.2075 123.97 54.8175C124.23 54.1575 124.5 53.4975 124.63 52.8375C125.03 52.0475 125.03 51.2575 124.37 50.5975C122.53 49.0175 120.42 48.4875 118.18 48.6175C115.68 48.8775 113.31 49.2775 110.8 48.8775C109.09 48.6175 107.51 48.0875 106.45 46.5075C105.79 45.5875 105.13 44.5275 104.47 43.3475C103.94 42.2975 103.68 41.1075 103.94 39.9175C104.07 38.5975 104.47 37.4175 104.6 36.0975C105.13 32.6675 106.71 30.0375 109.48 28.0575C110.27 27.5275 110.93 26.8675 111.59 26.2175C112.64 24.6375 114.09 23.7175 116.07 23.1875C118.57 22.5275 121.08 22.3975 123.71 22.3975C124.9 22.3975 125.42 22.9275 125.42 23.9775C125.42 24.6375 125.55 25.2975 126.08 25.6875C127.79 27.1375 129.64 27.9275 131.88 27.7975C132.28 27.7975 132.8 27.5375 133.07 27.2675C133.46 26.7375 133.86 26.4775 134.52 26.4775C137.02 26.7375 139.53 26.8775 142.16 27.1375C142.69 27.2675 142.95 27.6675 142.95 28.3275C142.95 29.5175 143.21 30.8275 144 31.8875C146.24 34.9175 148.35 37.9475 150.59 40.8475C151.12 41.5075 151.64 42.0375 152.3 42.4275C154.14 43.4775 155.99 42.9575 157.7 41.8975C157.96 41.8975 158.23 41.7675 158.49 41.4975C158.49 42.0775 158.49 42.3375 158.35 42.5975ZM144.79 45.6275C143.21 46.8175 141.36 47.3375 139.52 47.7375C135.7 48.6575 132.93 51.5575 132.41 55.2475C132.28 56.6975 132.67 58.0175 133.6 59.3275C135.18 56.4275 137.42 54.3175 139.26 53.9275C136.1 57.4875 134.12 61.3075 134.65 66.1775H136.1C135.71 64.8575 135.57 63.4075 135.97 62.2275C136.1 61.6975 136.23 61.4375 136.89 61.6975C138.47 62.0875 140.05 61.9575 141.5 61.1675C143.61 59.9775 144.66 58.1375 145.45 56.0275C146.5 52.9975 146.77 49.7075 146.77 46.5375V43.8975C145.97 44.5775 145.44 45.2375 144.79 45.6275Z" fill="#48BA7E"/>
<path d="M150.32 67.1097C150.06 67.3697 149.66 67.3697 149 67.3697H128.45C127.66 67.3697 127.66 67.1097 127.66 66.8397C127.53 66.4497 128.19 66.3097 128.58 66.3097H128.71C129.11 66.1797 129.37 66.1797 129.76 66.1797H138.06C138.06 66.1797 147.81 66.1797 148.2 66.1797C148.33 66.1797 148.33 66.1797 148.46 66.1797H149.78C150.58 66.3197 150.45 66.9797 150.32 67.1097Z" fill="#48BA7E"/>
<path d="M150.32 67.1097C150.06 67.3697 149.66 67.3697 149 67.3697H128.45C127.66 67.3697 127.66 67.1097 127.66 66.8397C127.53 66.4497 128.19 66.3097 128.58 66.3097H128.71C129.11 66.1797 129.37 66.1797 129.76 66.1797H138.06C138.06 66.1797 147.81 66.1797 148.2 66.1797C148.33 66.1797 148.33 66.1797 148.46 66.1797H149.78C150.58 66.3197 150.45 66.9797 150.32 67.1097Z" fill="#48BA7E"/>
<path d="M146.761 43.9141V46.554C146.761 49.714 146.501 53.014 145.441 56.044C144.651 58.154 143.601 59.9941 141.491 61.1841C140.041 61.9741 138.461 62.1041 136.881 61.7141C136.221 61.4541 136.091 61.714 135.961 62.244C135.571 63.434 135.701 64.8841 136.091 66.1941C136.221 66.3241 136.221 66.324 136.221 66.454H134.641C134.641 66.324 134.641 66.3241 134.641 66.1941C134.111 61.3241 136.091 57.5041 139.251 53.9441C137.411 54.3441 135.171 56.4441 133.591 59.3441C132.671 58.0241 132.271 56.704 132.401 55.264C132.931 51.574 135.691 48.6741 139.511 47.7541C141.351 47.3541 143.201 46.834 144.781 45.644C145.441 45.234 145.971 44.5741 146.761 43.9141Z" fill="#48BA7E"/>
</svg>
