<svg width="20" height="24" viewBox="0 0 20 24" fill="none" xmlns="http://www.w3.org/2000/svg">
    <path d="M19.2806 17.9611C18.9328 18.7646 18.5211 19.5043 18.0441 20.1843C17.3939 21.1114 16.8615 21.7531 16.4512 22.1095C15.8151 22.6944 15.1337 22.9939 14.4039 23.011C13.8801 23.011 13.2483 22.8619 12.5129 22.5595C11.7751 22.2585 11.097 22.1095 10.477 22.1095C9.8268 22.1095 9.12944 22.2585 8.38352 22.5595C7.63647 22.8619 7.03466 23.0195 6.57453 23.0351C5.87475 23.0649 5.17725 22.7569 4.48102 22.1095C4.03665 21.7219 3.48084 21.0575 2.81499 20.1162C2.1006 19.111 1.51326 17.9455 1.05313 16.6166C0.560353 15.1813 0.313324 13.7914 0.313324 12.4458C0.313324 10.9044 0.646388 9.575 1.31351 8.46096C1.83781 7.56611 2.53531 6.86023 3.40829 6.34204C4.28127 5.82385 5.22453 5.55978 6.24033 5.54289C6.79614 5.54289 7.52502 5.71481 8.4308 6.0527C9.33402 6.39173 9.91397 6.56366 10.1682 6.56366C10.3583 6.56366 11.0026 6.36263 12.0948 5.96184C13.1276 5.59016 13.9993 5.43627 14.7134 5.49689C16.6485 5.65306 18.1023 6.41586 19.0691 7.79014C17.3385 8.83874 16.4824 10.3074 16.4994 12.1915C16.5151 13.6591 17.0474 14.8803 18.0938 15.85C18.568 16.3 19.0975 16.6478 19.6867 16.8949C19.5589 17.2654 19.424 17.6203 19.2806 17.9611ZM14.8426 0.49724C14.8426 1.6475 14.4224 2.7215 13.5848 3.71558C12.5739 4.89734 11.3513 5.58022 10.0254 5.47247C10.0085 5.33447 9.99873 5.18924 9.99873 5.03662C9.99873 3.93237 10.4794 2.7506 11.3331 1.78435C11.7593 1.29512 12.3014 0.888327 12.9587 0.563824C13.6146 0.244162 14.235 0.0673822 14.8185 0.0371094C14.8355 0.190881 14.8426 0.344663 14.8426 0.497225V0.49724Z" fill="white"/>
    </svg>
    