<svg width="369" height="225" viewBox="0 0 369 225" fill="none" xmlns="http://www.w3.org/2000/svg">
<path d="M304.883 99.8795C309.284 99.0854 313.708 98.9234 318.155 99.3933C322.64 99.7353 326.855 100.762 330.799 102.474C334.909 104.096 338.621 106.365 341.934 109.281C345.285 112.07 348.155 115.551 350.544 119.725C352.896 124.027 354.386 128.423 355.014 132.915C355.643 137.406 355.629 142.196 354.971 147.283C354.508 150.759 350.54 160.502 350.866 163.654C351.192 166.807 353.011 171.128 353.346 172.838C353.928 176.066 355.605 179.359 355.931 182.511C356.56 185.445 356.727 184.698 356.595 187.994C356.372 191.124 356.461 191.973 354.484 194.45C352.673 196.837 350.01 197.863 346.496 197.527C344.464 197.349 342.646 196.677 341.043 195.512C339.604 194.257 338.369 192.783 337.336 191.091C336.342 189.271 335.493 187.425 334.792 185.552C334.256 183.588 333.746 181.772 333.263 180.102C329.195 183.078 325.115 185.147 321.023 186.309C316.968 187.344 312.416 187.468 307.366 186.683C303.122 185.995 299.182 184.979 295.546 183.635C291.911 182.292 288.151 180.425 284.266 178.036C279.177 175.016 275.347 171.253 272.777 166.749C270.373 162.153 268.886 157.271 268.317 152.103C267.913 146.843 268.435 141.508 269.882 136.097C271.329 130.685 273.526 125.563 276.471 120.729C280.287 114.345 284.624 109.503 289.482 106.203C294.34 102.903 299.474 100.795 304.883 99.8795ZM303.099 123.741C300.782 125.007 298.756 126.706 297.02 128.837C295.284 130.968 293.894 133.339 292.85 135.951C291.935 138.601 291.403 141.363 291.255 144.237C291.107 147.112 291.437 149.779 292.245 152.239C292.999 154.405 294.724 156.578 297.42 158.758C300.153 160.809 303.146 162.451 306.397 163.682C310.161 165.063 313.787 165.014 317.277 163.536C320.895 162.096 323.914 159.854 326.334 156.812C328.92 153.68 330.73 150.112 331.765 146.108C332.837 141.976 332.837 137.946 331.765 134.02C330.942 131.138 329.42 128.747 327.199 126.845C325.105 124.981 322.651 123.637 319.836 122.812C317.059 121.859 314.112 121.481 310.998 121.68C308.048 121.788 305.415 122.475 303.099 123.741Z" fill="black"/>
<path d="M105.6 72.8C103.733 75.6 101.8 78.3333 99.8 81C97.8 83.6667 95.8667 86.3333 94 89C85.6 101 77.2 112.933 68.8 124.8C60.5333 136.667 52.2667 148.667 44 160.8C46 160.8 47.5333 160.8 48.6 160.8C49.6667 160.8 50.5333 160.8 51.2 160.8C52 160.8 52.8667 160.8 53.8 160.8C54.7333 160.8 56.1333 160.867 58 161C59.8667 161 62.4 161 65.6 161C68.9333 161 73.3333 161 78.8 161C82.2667 161 85.6667 161 89 161C92.4667 161 95.9333 161.133 99.4 161.4C100.067 161.533 100.8 161.667 101.6 161.8C102.4 161.8 103.133 161.933 103.8 162.2L105 162.8C105 162.8 105.4 162.933 106.2 163.2C107.8 164.133 109.133 165.2 110.2 166.4C112.067 169.067 112.6 172.067 111.8 175.4C111.667 176.333 111.333 177.2 110.8 178C110.4 178.667 109.933 179.267 109.4 179.8C108.333 180.867 107.067 181.6 105.6 182C104.133 182.8 102.6 183.267 101 183.4C100.333 183.533 99.6667 183.667 99 183.8C98.4667 183.8 97.8667 183.8 97.2 183.8H24.6C23.8 183.8 23 183.8 22.2 183.8C21.4 183.8 20.6 183.733 19.8 183.6C19.4 183.467 19 183.4 18.6 183.4C18.3333 183.4 18.0667 183.333 17.8 183.2C17.2667 183.067 16.7333 183 16.2 183C15.8 182.867 15.2667 182.733 14.6 182.6C13.1333 181.8 12 181.067 11.2 180.4C9.6 179.2 8.73333 177.933 8.6 176.6V176.4C8.33333 175.733 8.13333 175.133 8 174.6C8 174.067 8.06667 173.4 8.2 172.6C8.2 172.467 8.13333 172.4 8 172.4C8 172.267 8 172.067 8 171.8C8 171 8.13333 170.267 8.4 169.6C8.66667 168.8 8.93333 168 9.2 167.2C9.46667 166.8 9.66667 166.4 9.8 166C10.0667 165.467 10.4 165 10.8 164.6C11.0667 163.933 11.4 163.267 11.8 162.6C12.3333 161.933 12.7333 161.267 13 160.6C13.2667 160.067 13.5333 159.533 13.8 159C14.2 158.333 14.5333 157.8 14.8 157.4C15.3333 156.867 15.7333 156.4 16 156C16.4 155.467 16.7333 154.933 17 154.4L27.4 139.8L46 112.8C48.9333 108.933 51.8 104.933 54.6 100.8C57.5333 96.5333 60.5333 92.1333 63.6 87.6C65.8667 84.1333 67.9333 81.1333 69.8 78.6C71.6667 75.9333 73.6667 73.0667 75.8 70C71.1333 70 66.7333 70 62.6 70C58.6 70 54.6 70 50.6 70C46.6 69.8667 42.4 69.8 38 69.8C33.7333 69.6667 29 69.5333 23.8 69.4C21.9333 69.2667 19.7333 69 17.2 68.6C14.8 68.0667 12.8 67.0667 11.2 65.6C9.73333 64.2667 8.86667 62.8667 8.6 61.4C8.2 60.0667 8 58.4667 8 56.6C8 54.4667 8.6 52.6 9.8 51C11.1333 49.2667 12.8 48 14.8 47.2C17.6 46.1333 20.3333 45.6 23 45.6C24.4667 45.4667 25.9333 45.4 27.4 45.4C28.8667 45.4 30.2667 45.2667 31.6 45H32.6C36.4667 44.8667 42.2 44.8667 49.8 45C57.5333 45 67.2 45 78.8 45C80.2667 45 81.8 45 83.4 45C85 44.8667 86.5333 44.8667 88 45C91.0667 45.2667 94.2667 45.3333 97.6 45.2C101.067 45.0667 104.2 45.8 107 47.4C107.8 47.8 108.533 48.2667 109.2 48.8C109.867 49.3333 110.6 49.8 111.4 50.2C113 51.6667 113.733 53.4 113.6 55.4C113.6 57.4 113.133 59.4667 112.2 61.6C111.4 63.7333 110.333 65.8 109 67.8C107.667 69.8 106.533 71.4667 105.6 72.8ZM203.481 137.4C203.215 141.8 202.948 146.267 202.681 150.8C202.415 155.2 201.681 159.467 200.481 163.6C199.415 167.733 197.681 171.467 195.281 174.8C193.015 178.133 189.748 180.8 185.481 182.8C181.748 184.667 177.748 185.933 173.481 186.6C169.215 187.4 164.948 187.733 160.681 187.6C156.415 187.467 152.281 186.8 148.281 185.6C144.281 184.533 140.681 183 137.481 181C134.281 179 131.681 176.4 129.681 173.2C127.681 170 126.081 166.533 124.881 162.8C123.815 159.067 123.081 155.2 122.681 151.2C122.281 147.2 122.015 143.467 121.881 140C121.348 130.8 121.348 121.733 121.881 112.8C121.881 111.067 121.881 109.133 121.881 107C121.881 104.733 122.015 102.533 122.281 100.4C122.681 98.2667 123.281 96.3333 124.081 94.6C124.881 92.7333 126.215 91.3333 128.081 90.4C132.081 88.2667 135.748 88.1333 139.081 90C142.548 91.8667 144.615 95.7333 145.281 101.6C145.681 104.667 145.815 108.067 145.681 111.8C145.681 115.533 145.815 118.933 146.081 122C146.215 126.533 146.348 131.467 146.481 136.8C146.615 142 147.348 146.667 148.681 150.8C150.148 154.933 152.481 158.067 155.681 160.2C159.015 162.2 163.948 162.267 170.481 160.4C173.548 159.467 175.548 157.133 176.481 153.4C177.548 149.667 178.081 144.133 178.081 136.8C178.081 133.6 178.015 130.067 177.881 126.2C177.748 122.333 177.681 118.533 177.681 114.8C177.681 110.933 177.748 107.4 177.881 104.2C178.148 100.867 178.548 98.3333 179.081 96.6C179.748 94.2 181.148 92.4 183.281 91.2C185.415 90 187.681 89.4 190.081 89.4C192.481 89.2667 194.748 89.7333 196.881 90.8C199.015 91.8667 200.481 93.6 201.281 96C202.081 98.1333 202.615 100.867 202.881 104.2C203.281 107.4 203.548 110.933 203.681 114.8C203.815 118.533 203.815 122.4 203.681 126.4C203.681 130.267 203.615 133.933 203.481 137.4ZM250.811 169C250.678 169.667 250.544 170.333 250.411 171C250.411 171.533 250.411 172.133 250.411 172.8L249.211 177C248.944 177.533 248.744 177.867 248.611 178L248.011 179.2C247.344 180.667 246.144 181.867 244.411 182.8C241.211 184.4 237.811 184.8 234.211 184C231.944 183.733 230.144 183.067 228.811 182C227.478 181.067 226.544 179.933 226.011 178.6C225.478 177.267 225.078 175.933 224.811 174.6C224.411 173.267 224.211 172.067 224.211 171V59C224.211 58.0667 224.211 57.2667 224.211 56.6C224.344 55.8 224.478 55.0667 224.611 54.4C224.744 53.4667 224.878 52.6667 225.011 52C225.278 51.3333 225.544 50.6 225.811 49.8C226.211 48.4667 226.944 47.4 228.011 46.6C229.611 45.4 231.144 44.7333 232.611 44.6C233.544 44.3333 234.411 44.2 235.211 44.2C236.011 44.0667 236.944 44 238.011 44C239.878 44 242.011 44.5333 244.411 45.6C246.278 46.6667 247.611 48.1333 248.411 50C249.744 52.6667 250.411 55.1333 250.411 57.4C250.544 58.7333 250.611 60.7333 250.611 63.4C250.744 66.0667 250.811 68.0667 250.811 69.4V70.2C251.078 74.4667 251.211 78.6 251.211 82.6C251.211 86.4667 251.144 90.7333 251.011 95.4C251.011 99.9333 250.944 104.333 250.811 108.6C250.811 112.733 250.811 116.867 250.811 121V163C250.811 163.533 250.811 164.067 250.811 164.6C250.944 165 251.011 165.467 251.011 166C251.011 167.333 250.944 168.333 250.811 169Z" fill="black"/>
</svg>
